<svg preserveAspectRatio="none" overflow="visible" style="display: block;" width="12" height="13" viewBox="0 0 12 13" fill="none" xmlns="http://www.w3.org/2000/svg">
<g id="Document, Content, Notes,Planner" clip-path="url(#clip0_0_228)">
<g id="Group">
<path id="Vector" d="M4.00078 7.04168H8.00078" stroke="#666666" stroke-width="0.747679" stroke-linecap="round" stroke-linejoin="round"/>
<path id="Vector_2" d="M4.00078 9.20834H8.00078" stroke="#666666" stroke-width="0.747679" stroke-linecap="round" stroke-linejoin="round"/>
<path id="Vector_3" d="M3.00028 1.62503H7.58662C7.85164 1.62503 8.10616 1.73932 8.29367 1.94245L9.70778 3.47428C9.89529 3.67741 10.0008 3.95311 10.0008 4.2402V10.2917C10.0008 10.8902 9.55327 11.375 9.00072 11.375H3.00028C2.44773 11.375 2.0002 10.8902 2.0002 10.2917V2.70836C2.0002 2.10982 2.44773 1.62503 3.00028 1.62503Z" stroke="#666666" stroke-width="0.747679" stroke-linecap="round" stroke-linejoin="round"/>
<path id="Vector_4" d="M10.0009 4.33335H8.00077C7.72475 4.33335 7.50073 4.09068 7.50073 3.79168V1.62501" stroke="#666666" stroke-width="0.747679" stroke-linecap="round" stroke-linejoin="round"/>
<path id="Vector_5" d="M4.00078 4.87501H5.50078" stroke="#666666" stroke-width="0.747679" stroke-linecap="round" stroke-linejoin="round"/>
</g>
<g id="Vector_6">
</g>
</g>
<defs>
<clipPath id="clip0_0_228">
<rect width="12" height="13" fill="white"/>
</clipPath>
</defs>
</svg>
